<?xml version="1.0" encoding="iso-8859-1"?>
<!-- Generator: Adobe Illustrator 16.0.0, SVG Export Plug-In . SVG Version: 6.00 Build 0)  -->
<!DOCTYPE svg PUBLIC "-//W3C//DTD SVG 1.1//EN" "http://www.w3.org/Graphics/SVG/1.1/DTD/svg11.dtd">
<svg version="1.1" id="Layer_1" xmlns="http://www.w3.org/2000/svg" xmlns:xlink="http://www.w3.org/1999/xlink" x="0px" y="0px"
	 width="500px" height="500px" viewBox="0 0 500 500" style="enable-background:new 0 0 500 500;" xml:space="preserve">
<path style="opacity:0.5;fill:#FFFFFF;" d="M304.019,75.949c-63.011,11.073-123.002,34.509-184.378,52.854
	c-40.56,12.122-101.693,15.841-108.297,69.015c-1.979,15.926,1.347,32.019,5.499,47.52
	c23.607,88.133,78.702,158.679,171.751,175.671c54.488,9.95,112.04,16.348,164.372-6.414
	c59.07-25.693,101.475-79.569,120.228-140.378c17.424-56.505,22.175-146.223-29.136-187.55c-29.16-23.485-65.228-18.65-99.96-15.892
	C330.577,71.849,317.23,73.627,304.019,75.949z"/>
<rect x="199.76" y="349.066" style="fill:#763a9b;" width="119.545" height="50.434"/>
<path style="fill:#d6aeef;" d="M446.175,364.009H72.891c-1.628,0-2.948-1.318-2.948-2.947V129.738c0-1.628,1.32-2.948,2.948-2.948
	h373.284c1.627,0,2.948,1.32,2.948,2.948v231.324C449.123,362.69,447.802,364.009,446.175,364.009z"/>
<rect x="169.875" y="399.5" style="fill:#d6aeef;" width="179.315" height="9.339"/>
<rect x="87.688" y="143.6" style="fill:#922EA3;" width="343.689" height="205.467"/>
<rect x="87.688" y="166.874" style="fill:#FFFFFF;" width="343.689" height="182.192"/>
<g>
	<path style="fill:#922EA3;" d="M215.481,230.281v34.629h6.589v9.041h-6.589v11.262h-11.032v-11.262h-23.941v-9.462
		c2.119-2.375,4.315-4.974,6.588-7.795c2.272-2.822,4.469-5.728,6.589-8.715c2.119-2.988,4.092-5.995,5.918-9.021
		c1.826-3.026,3.377-5.918,4.654-8.677H215.481z M191.348,264.91h13.101v-19.191c-0.894,1.66-1.864,3.34-2.911,5.037
		c-1.047,1.699-2.145,3.372-3.294,5.019c-1.149,1.647-2.312,3.244-3.486,4.788C193.583,262.108,192.446,263.558,191.348,264.91z"/>
	<path style="fill:#922EA3;" d="M246.394,286.171c-13.076,0-19.613-9.181-19.613-27.542c0-9.525,1.768-16.785,5.306-21.777
		c3.537-4.993,8.663-7.489,15.38-7.489c12.768,0,19.152,9.334,19.152,28.002c0,9.296-1.742,16.421-5.229,21.375
		S252.906,286.171,246.394,286.171z M246.93,238.594c-5.235,0-7.853,6.576-7.853,19.729c0,12.386,2.566,18.578,7.7,18.578
		c5.004,0,7.508-6.384,7.508-19.153C254.285,244.979,251.834,238.594,246.93,238.594z"/>
	<path style="fill:#922EA3;" d="M305.73,230.281v34.629h6.588v9.041h-6.588v11.262h-11.032v-11.262h-23.941v-9.462
		c2.119-2.375,4.315-4.974,6.589-7.795c2.272-2.822,4.468-5.728,6.588-8.715c2.12-2.988,4.093-5.995,5.919-9.021
		c1.825-3.026,3.377-5.918,4.654-8.677H305.73z M281.598,264.91h13.101v-19.191c-0.895,1.66-1.864,3.34-2.911,5.037
		c-1.048,1.699-2.146,3.372-3.295,5.019c-1.149,1.647-2.312,3.244-3.485,4.788C283.832,262.108,282.695,263.558,281.598,264.91z"/>
	<path style="fill:#922EA3;" d="M327.259,286.094c-2.044,0-3.729-0.619-5.057-1.857c-1.328-1.238-1.992-2.739-1.992-4.501
		c0-1.839,0.671-3.346,2.012-4.521c1.341-1.174,3.02-1.762,5.037-1.762c2.043,0,3.716,0.594,5.018,1.781
		c1.303,1.188,1.954,2.688,1.954,4.501c0,1.839-0.646,3.358-1.935,4.559C331.006,285.493,329.327,286.094,327.259,286.094z
		 M333.541,230.281l-1.494,37.847h-9.807l-1.417-37.847H333.541z"/>
</g>
<g>
	<g>
		<polyline style="fill:none;stroke:#d6aeef;stroke-miterlimit:10;" points="410.685,333.847 410.685,336.347 408.185,336.347 		"/>
		
			<line style="fill:none;stroke:#d6aeef;stroke-miterlimit:10;stroke-dasharray:5.039,5.039;" x1="403.146" y1="336.347" x2="113.4" y2="336.347"/>
		<polyline style="fill:none;stroke:#d6aeef;stroke-miterlimit:10;" points="110.881,336.347 108.381,336.347 108.381,333.847 		"/>
		
			<line style="fill:none;stroke:#d6aeef;stroke-miterlimit:10;stroke-dasharray:4.9263,4.9263;" x1="108.381" y1="328.92" x2="108.381" y2="183.596"/>
		<polyline style="fill:none;stroke:#d6aeef;stroke-miterlimit:10;" points="108.381,181.132 108.381,178.632 110.881,178.632 		"/>
		
			<line style="fill:none;stroke:#d6aeef;stroke-miterlimit:10;stroke-dasharray:5.039,5.039;" x1="115.92" y1="178.632" x2="405.665" y2="178.632"/>
		<polyline style="fill:none;stroke:#d6aeef;stroke-miterlimit:10;" points="408.185,178.632 410.685,178.632 410.685,181.132 		"/>
		
			<line style="fill:none;stroke:#d6aeef;stroke-miterlimit:10;stroke-dasharray:4.9263,4.9263;" x1="410.685" y1="186.059" x2="410.685" y2="331.384"/>
	</g>
</g>
<rect x="87.688" y="143.6" style="fill:#922EA3;" width="343.689" height="11.939"/>
<path style="fill:#FFFFFF;" d="M180.841,166.874h-66.618l1.464-4.88c0.881-2.936,3.584-4.946,6.648-4.946h50.393
	c3.065,0,5.768,2.011,6.648,4.946L180.841,166.874z"/>
<circle style="fill:#763a9b;" cx="95.687" cy="150.257" r="2.447"/>
<circle style="fill:#763a9b;" cx="103.264" cy="150.257" r="2.447"/>
<circle style="fill:#763a9b;" cx="110.841" cy="150.257" r="2.447"/>
<g>
	<path style="fill:#d6aeef;" d="M158,103.687c-4.111,0-7.456-3.345-7.456-7.456c0-4.11,3.345-7.456,7.456-7.456
		s7.456,3.345,7.456,7.456C165.456,100.342,162.111,103.687,158,103.687z M158,91.724c-2.485,0-4.508,2.022-4.508,4.507
		s2.022,4.508,4.508,4.508s4.508-2.022,4.508-4.508S160.485,91.724,158,91.724z"/>
</g>
<g>
	<path style="fill:#FFFFFF;" d="M399.005,417.434c-4.111,0-7.457-3.343-7.457-7.454s3.346-7.457,7.457-7.457
		s7.455,3.346,7.455,7.457S403.116,417.434,399.005,417.434z M399.005,405.471c-2.486,0-4.509,2.021-4.509,4.509
		c0,2.484,2.022,4.506,4.509,4.506c2.484,0,4.507-2.021,4.507-4.506C403.512,407.492,401.489,405.471,399.005,405.471z"/>
</g>
<g>
	<path style="fill:#d6aeef;" d="M412.271,108.047c-4.111,0-7.457-3.345-7.457-7.456c0-4.111,3.346-7.456,7.457-7.456
		s7.455,3.345,7.455,7.456C419.727,104.702,416.383,108.047,412.271,108.047z M412.271,96.083c-2.486,0-4.509,2.022-4.509,4.507
		s2.022,4.508,4.509,4.508c2.484,0,4.507-2.022,4.507-4.508S414.756,96.083,412.271,96.083z"/>
</g>
<g>
	<path style="fill:#d6aeef;" d="M469.761,380.751c-4.111,0-7.457-3.343-7.457-7.454s3.346-7.457,7.457-7.457
		s7.455,3.346,7.455,7.457S473.872,380.751,469.761,380.751z M469.761,368.788c-2.486,0-4.509,2.024-4.509,4.509
		c0,2.485,2.022,4.506,4.509,4.506c2.484,0,4.507-2.021,4.507-4.506C474.268,370.813,472.245,368.788,469.761,368.788z"/>
</g>
<g>
	<path style="fill:#922EA3;" d="M31.965,250.358c-4.111,0-7.456-3.345-7.456-7.456c0-4.11,3.345-7.455,7.456-7.455
		s7.456,3.345,7.456,7.455C39.421,247.014,36.077,250.358,31.965,250.358z M31.965,238.396c-2.485,0-4.508,2.021-4.508,4.507
		s2.023,4.508,4.508,4.508s4.508-2.022,4.508-4.508S34.451,238.396,31.965,238.396z"/>
</g>
<path style="fill:#922EA3;" d="M272.417,77.104h-3.132v-3.132c0-1.222-0.99-2.211-2.211-2.211c-1.223,0-2.212,0.989-2.212,2.211
	v3.132h-3.132c-1.223,0-2.211,0.99-2.211,2.211c0,1.221,0.988,2.211,2.211,2.211h3.132v3.132c0,1.222,0.989,2.211,2.212,2.211
	c1.221,0,2.211-0.99,2.211-2.211v-3.132h3.132c1.221,0,2.212-0.99,2.212-2.211C274.629,78.094,273.638,77.104,272.417,77.104z"/>
<path style="fill:#922EA3;" d="M42.459,346.677h-3.132v-3.132c0-1.221-0.99-2.211-2.211-2.211c-1.221,0-2.211,0.99-2.211,2.211
	v3.132h-3.132c-1.222,0-2.211,0.991-2.211,2.212s0.99,2.211,2.211,2.211h3.132v3.132c0,1.222,0.99,2.212,2.211,2.212
	c1.222,0,2.211-0.99,2.211-2.212V351.1h3.132c1.221,0,2.211-0.99,2.211-2.211S43.681,346.677,42.459,346.677z"/>
<path style="fill:#FFFFFF;" d="M116.164,413.011h-3.132v-3.132c0-1.221-0.99-2.211-2.211-2.211c-1.222,0-2.211,0.99-2.211,2.211
	v3.132h-3.132c-1.222,0-2.211,0.991-2.211,2.212s0.989,2.211,2.211,2.211h3.132v3.132c0,1.221,0.99,2.212,2.211,2.212
	c1.221,0,2.211-0.991,2.211-2.212v-3.132h3.132c1.222,0,2.211-0.99,2.211-2.211S117.385,413.011,116.164,413.011z"/>
<path style="fill:#d6aeef;" d="M474.367,267.813h-3.133v-3.132c0-1.221-0.99-2.212-2.211-2.212c-1.222,0-2.211,0.991-2.211,2.212
	v3.132h-3.133c-1.222,0-2.211,0.99-2.211,2.211c0,1.223,0.989,2.212,2.211,2.212h3.133v3.132c0,1.223,0.989,2.211,2.211,2.211
	c1.221,0,2.211-0.988,2.211-2.211v-3.132h3.133c1.221,0,2.211-0.989,2.211-2.212C476.578,268.804,475.588,267.813,474.367,267.813z"
	/>
<g>
</g>
<g>
</g>
<g>
</g>
<g>
</g>
<g>
</g>
<g>
</g>
</svg>
